<svg xmlns="http://www.w3.org/2000/svg" style="display: none;">
  <!-- Example icon: search -->
  <symbol id="search" viewBox="0 0 24 24" fill="none" stroke="currentColor" stroke-width="1.5" vector-effect="non-scaling-stroke">
    <path stroke-linecap="round" stroke-linejoin="round" d="M21 21l-6-6m2-5a7 7 0 11-14 0 7 7 0 0114 0z" />
  </symbol>
  <!-- Example icon: location -->
  <symbol id="location" viewBox="0 0 24 24" fill="none" stroke="currentColor" stroke-width="1.5" vector-effect="non-scaling-stroke">
    <path stroke-linecap="round" stroke-linejoin="round" d="M17.657 16.657L13.414 20.9a1.998 1.998 0 01-2.828 0L6.343 16.657a8 8 0 1111.314 0z" />
    <path stroke-linecap="round" stroke-linejoin="round" d="M15 11a3 3 0 11-6 0 3 3 0 016 0z" />
  </symbol>
  <!-- Example icon: user/login -->
  <symbol id="user" viewBox="0 0 24 24" fill="none" stroke="currentColor" stroke-width="1.5" vector-effect="non-scaling-stroke">
    <path stroke-linecap="round" stroke-linejoin="round" d="M16 7a4 4 0 11-8 0 4 4 0 018 0zM12 14a7 7 0 00-7 7h14a7 7 0 00-7-7z" />
  </symbol>
  <!-- Example icon: globe/language -->
  <symbol id="globe" viewBox="0 0 24 24" fill="none" stroke="currentColor" stroke-width="1.5" vector-effect="non-scaling-stroke">
    <path stroke-linecap="round" stroke-linejoin="round" d="M3 5h12M9 3v2m1.048 9.5A18.022 18.022 0 0112 15.75c2.795 0 5.419-.856 7.652-2.348M12 10.5v6m-3-4.5H9m3 0h3m-6 2.25h3M12 12.75V15m-3-2.25H9m3 0h3m-6 2.25h3m-3 3V21m-3-4.5H9m3 0h3" />
  </symbol>
  <!-- Icon for Technology category -->
  <symbol id="desktop" viewBox="0 0 24 24" fill="none" stroke="currentColor" stroke-width="1.5" vector-effect="non-scaling-stroke">
    <path stroke-linecap="round" stroke-linejoin="round" d="M9 3v2m6-2v2M9 19v2m6-2v2M5 9H3m2 6H3m18-6h-2m2 6h-2M7 19h10a2 2 0 002-2V7a2 2 0 00-2-2H7a2 2 0 00-2 2v10a2 2 0 002 2zM9 9h6v6H9V9z" />
  </symbol>
  <!-- Icon for Finance category -->
  <symbol id="building" viewBox="0 0 24 24" fill="none" stroke="currentColor" stroke-width="1.5" vector-effect="non-scaling-stroke">
    <path stroke-linecap="round" stroke-linejoin="round" d="M19 21V5a2 2 0 00-2-2H7a2 2 0 00-2 2v16m14 0h2m-2 0h-5m-9 0H3m2 0h5M9 7h1m-1 4h1m4-4h1m-1 4h1m-5 10v-5a1 1 0 011-1h2a1 1 0 011 1v5m-4 0h4" />
  </symbol>
  <!-- Icon for Healthcare category -->
  <symbol id="heart" viewBox="0 0 24 24" fill="none" stroke="currentColor" stroke-width="1.5" vector-effect="non-scaling-stroke">
    <path stroke-linecap="round" stroke-linejoin="round" d="M4.318 6.318a4.5 4.5 0 000 6.364L12 20.364l7.682-7.682a4.5 4.5 0 00-6.364-6.364L12 7.636l-1.318-1.318a4.5 4.5 0 00-6.364 0z" />
  </symbol>
  <!-- Icon for Education category -->
  <symbol id="book" viewBox="0 0 24 24" fill="none" stroke="currentColor" stroke-width="1.5" vector-effect="non-scaling-stroke">
    <path stroke-linecap="round" stroke-linejoin="round" d="M12 6.253v13m0-13C10.832 5.477 9.246 5 7.5 5S4.168 5.477 3 6.253v13C4.168 18.477 5.754 18 7.5 18s3.332.477 4.5 1.253m0-13C13.168 5.477 14.754 5 16.5 5c1.747 0 3.332.477 4.5 1.253v13C19.832 18.477 18.246 18 16.5 18c-1.746 0-3.332.477-4.5 1.253" />
  </symbol>
  <!-- Icon for Marketing category -->
  <symbol id="chart-bar" viewBox="0 0 24 24" fill="none" stroke="currentColor" stroke-width="1.5" vector-effect="non-scaling-stroke">
    <path stroke-linecap="round" stroke-linejoin="round" d="M19 21V5a2 2 0 00-2-2H7a2 2 0 00-2 2v16m14 0h2m-2 0h-5m-9 0H3m2 0h5M9 7h1m-1 4h1m4-4h1m-1 4h1m-5 10v-5a1 1 0 011-1h2a1 1 0 011 1v5m-4 0h4" />
  </symbol>
  <!-- Icon for Engineering category -->
  <symbol id="bolt" viewBox="0 0 24 24" fill="none" stroke="currentColor" stroke-width="1.5" vector-effect="non-scaling-stroke">
    <path stroke-linecap="round" stroke-linejoin="round" d="M13 10V3L4 14h7v7l9-11h-7z" />
  </symbol>
  <!-- Icon for Design category -->
  <symbol id="palette" viewBox="0 0 24 24" fill="none" stroke="currentColor" stroke-width="1.5" vector-effect="non-scaling-stroke">
    <path stroke-linecap="round" stroke-linejoin="round" d="M9.663 17h4.673M12 3v1m6.364 1.636l-.707.707M21 12h-1M4 12H3m3.343-5.657l-.707-.707m2.828 9.9a5 5 0 117.072 0l-.548.547A3.374 3.374 0 0014 18.469V19a2 2 0 11-4 0v-.531c0-.895-.356-1.754-.988-2.386l-.548-.547z" />
  </symbol>
  <!-- Icon for Sales category -->
  <symbol id="users" viewBox="0 0 24 24" fill="none" stroke="currentColor" stroke-width="1.5" vector-effect="non-scaling-stroke">
    <path stroke-linecap="round" stroke-linejoin="round" d="M17 20h5v-2a3 3 0 00-5.356-1.857M17 20H7m10 0v-2c0-.656-.126-1.283-.356-1.857M7 20H2v-2a3 3 0 015.356-1.857m0 0a5.002 5.002 0 019.288 0M15 7a3 3 0 11-6 0 3 3 0 016 0zm6 3a2 2 0 11-4 0 2 2 0 014 0zM7 10a2 2 0 11-4 0 2 2 0 014 0z" />
  </symbol>
  <!-- Icon for Bilingual Support feature -->
  <symbol id="globe-feature" viewBox="0 0 24 24" fill="none" stroke="currentColor" stroke-width="1.5" vector-effect="non-scaling-stroke">
    <path stroke-linecap="round" stroke-linejoin="round" d="M21 12a9 9 0 11-9-9m9 9H3m9 9v-9m0-9v9" />
  </symbol>
  <!-- Icon for arrow-right -->
  <symbol id="arrow-right" viewBox="0 0 24 24" fill="none" stroke="currentColor" stroke-width="1.5" vector-effect="non-scaling-stroke">
    <path stroke-linecap="round" stroke-linejoin="round" d="M9 5l7 7-7 7" />
  </symbol>
  <!-- Icon for briefcase/jobs -->
  <symbol id="briefcase" viewBox="0 0 24 24" fill="none" stroke="currentColor" stroke-width="1.5" vector-effect="non-scaling-stroke">
    <path stroke-linecap="round" stroke-linejoin="round" d="M21 13.255A23.564 23.564 0 0112 15.75c-2.353 0-4.626-.494-6.75-1.495M12 10.5v6m-3-4.5H9m3 0h3m-6 2.25h3M12 12.75V15m-3-2.25H9m3 0h3m-6 2.25h3m-3 3V21m-3-4.5H9m3 0h3" />
  </symbol>
  <!-- Spinner icon -->
  <symbol id="spinner" viewBox="0 0 24 24">
    <circle class="opacity-25" cx="12" cy="12" r="10" stroke="currentColor" stroke-width="1.5" vector-effect="non-scaling-stroke"></circle>
    <path class="opacity-75" fill="currentColor" d="M4 12a8 8 0 018-8V0C5.373 0 0 5.373 0 12h4zm2 5.291A7.962 7.962 0 014 12H0c0 3.042 1.135 5.824 3 7.938l3-2.647z"></path>
  </symbol>
  <!-- Additional icons for admin components -->
  <symbol id="shield" viewBox="0 0 24 24" fill="none" stroke="currentColor" stroke-width="1.5" vector-effect="non-scaling-stroke">
    <path stroke-linecap="round" stroke-linejoin="round" d="M12 22s8-4 8-10V5l-8-3-8 3v7c0 6 8 10 8 10z" />
  </symbol>
  <symbol id="trending-up" viewBox="0 0 24 24" fill="none" stroke="currentColor" stroke-width="1.5" vector-effect="non-scaling-stroke">
    <path stroke-linecap="round" stroke-linejoin="round" d="M7 17l9.2-9.2M17 8v9h-9" />
  </symbol>
  <symbol id="clock" viewBox="0 0 24 24" fill="none" stroke="currentColor" stroke-width="1.5" vector-effect="non-scaling-stroke">
    <circle cx="12" cy="12" r="10" />
    <path stroke-linecap="round" stroke-linejoin="round" d="M12 6v6l4 2" />
  </symbol>
  <symbol id="alert-triangle" viewBox="0 0 24 24" fill="none" stroke="currentColor" stroke-width="1.5" vector-effect="non-scaling-stroke">
    <path stroke-linecap="round" stroke-linejoin="round" d="M10.29 3.86L1.82 18a2 2 0 001.71 3h16.94a2 2 0 001.71-3L13.71 3.86a2 2 0 00-3.42 0z" />
    <path stroke-linecap="round" stroke-linejoin="round" d="M12 9v4m0 4h.01" />
  </symbol>
  <symbol id="flag" viewBox="0 0 24 24" fill="none" stroke="currentColor" stroke-width="1.5" vector-effect="non-scaling-stroke">
    <path stroke-linecap="round" stroke-linejoin="round" d="M4 15s1-1 4-1 5 2 8 2 4-1 4-1V3s-1 1-4 1-5-2-8-2-4 1-4 1v12z" />
    <path stroke-linecap="round" stroke-linejoin="round" d="M4 22v-7" />
  </symbol>
  <symbol id="eye" viewBox="0 0 24 24" fill="none" stroke="currentColor" stroke-width="1.5" vector-effect="non-scaling-stroke">
    <path stroke-linecap="round" stroke-linejoin="round" d="M1 12s4-8 11-8 11 8 11 8-4 8-11 8-11-8-11-8z" />
    <circle cx="12" cy="12" r="3" />
  </symbol>
  <symbol id="check-circle" viewBox="0 0 24 24" fill="none" stroke="currentColor" stroke-width="1.5" vector-effect="non-scaling-stroke">
    <path stroke-linecap="round" stroke-linejoin="round" d="M22 11.08V12a10 10 0 11-5.93-9.14" />
    <path stroke-linecap="round" stroke-linejoin="round" d="M22 4L12 14.01l-3-3" />
  </symbol>
  <symbol id="x-circle" viewBox="0 0 24 24" fill="none" stroke="currentColor" stroke-width="1.5" vector-effect="non-scaling-stroke">
    <circle cx="12" cy="12" r="10" />
    <path stroke-linecap="round" stroke-linejoin="round" d="M15 9l-6 6m0-6l6 6" />
  </symbol>
  <symbol id="calendar" viewBox="0 0 24 24" fill="none" stroke="currentColor" stroke-width="1.5" vector-effect="non-scaling-stroke">
    <rect x="3" y="4" width="18" height="18" rx="2" ry="2" />
    <path stroke-linecap="round" stroke-linejoin="round" d="M16 2v4M8 2v4M3 10h18" />
  </symbol>
  <symbol id="filter" viewBox="0 0 24 24" fill="none" stroke="currentColor" stroke-width="1.5" vector-effect="non-scaling-stroke">
    <path stroke-linecap="round" stroke-linejoin="round" d="M22 3H2l8 9.46V19l4 2v-8.54L22 3z" />
  </symbol>
  <symbol id="bot" viewBox="0 0 24 24" fill="none" stroke="currentColor" stroke-width="1.5" vector-effect="non-scaling-stroke">
    <rect x="3" y="11" width="18" height="10" rx="2" ry="2" />
    <circle cx="12" cy="5" r="2" />
    <path stroke-linecap="round" stroke-linejoin="round" d="M12 7v4M8 16h.01M16 16h.01" />
  </symbol>
  <symbol id="file-text" viewBox="0 0 24 24" fill="none" stroke="currentColor" stroke-width="1.5" vector-effect="non-scaling-stroke">
    <path stroke-linecap="round" stroke-linejoin="round" d="M14 2H6a2 2 0 00-2 2v16a2 2 0 002 2h12a2 2 0 002-2V8z" />
    <path stroke-linecap="round" stroke-linejoin="round" d="M14 2v6h6M16 13H8M16 17H8M10 9H8" />
  </symbol>
  <symbol id="message-square" viewBox="0 0 24 24" fill="none" stroke="currentColor" stroke-width="1.5" vector-effect="non-scaling-stroke">
    <path stroke-linecap="round" stroke-linejoin="round" d="M21 15a2 2 0 01-2 2H7l-4 4V5a2 2 0 012-2h14a2 2 0 012 2v10z" />
  </symbol>
</svg>
